<svg id="Layer_1" data-name="Layer 1" xmlns="http://www.w3.org/2000/svg" xmlns:xlink="http://www.w3.org/1999/xlink" viewBox="0 0 880 677.42911"><defs><linearGradient id="linear-gradient" x1="2736.49604" y1="9074.88908" x2="2736.49604" y2="8483.5522" gradientTransform="matrix(0.56389, 0.99104, 1.06086, -0.6246, -10473.3745, 3191.94791)" gradientUnits="userSpaceOnUse"><stop offset="0" stop-color="#e040fb"/><stop offset="0.23085" stop-color="#c138fc"/><stop offset="0.75387" stop-color="#7f26fe"/><stop offset="1" stop-color="#651fff"/></linearGradient><linearGradient id="linear-gradient-2" x1="1553.11344" y1="8957.25438" x2="1553.11344" y2="8212.97194" gradientTransform="matrix(0.20493, 0.79237, 1.06715, -0.34787, -9057.13768, 2129.12202)" xlink:href="#linear-gradient"/></defs><title>svg FORM (in prod)</title><path d="M144.70619,147.16C50.82963,256.06348-7.04041,433.88278,64.97142,594.92013c39.77626,88.97595,103.10484,81.32605,165.31016,50.23328C327.675,596.43309,413.96675,521.98615,529.17224,518.92958c53.02253-1.42726,107.80774,13.8769,158.14718,40.72972,33.777,17.97085,89.22111,66.84739,121.5895,36.54327,43.3827-40.68766-.74508-149.196-22.99036-197.65777C718.94625,252.64959,617.61734,137.057,476.44848,84.19806,361.936,41.31185,222.01815,57.51232,144.70619,147.16Z" opacity="0.5" fill="url(#linear-gradient)"/><path d="M263.31739,87.09235C125.97425,175.69973,3.15887,333.22726,24.21474,492.64184c11.62147,88.07779,81.58745,89.49319,158.43934,68.9623,120.33862-32.18108,237.74162-89.77531,361.27855-77.10391,56.86408,5.81287,109.83534,27.41843,154.09946,59.16223,29.71672,21.25592,71.817,74.16273,116.67526,50.34734C874.85463,562.02389,865.339,455.2007,858.39188,407.15c-20.917-144.65822-88.80563-265.77017-220.67359-333.92278C530.75336,17.93571,376.41256,14.15664,263.31739,87.09235Z" fill="url(#linear-gradient-2)"/></svg>