<svg id="Layer_1" data-name="Layer 1" xmlns="http://www.w3.org/2000/svg" xmlns:xlink="http://www.w3.org/1999/xlink" viewBox="0 0 390.15493 495.00804"><defs><linearGradient id="linear-gradient" x1="3978.33132" y1="6371.52162" x2="3573.20599" y2="6236.13832" gradientTransform="matrix(0.37662, -1.10801, -1.12702, -0.34319, 5877.58209, 6595.6838)" gradientUnits="userSpaceOnUse"><stop offset="0" stop-color="#fbc02d"/><stop offset="0.13184" stop-color="#faa333"/><stop offset="0.55661" stop-color="#f74c46"/><stop offset="0.85569" stop-color="#f61552"/><stop offset="1" stop-color="#f50057"/></linearGradient><linearGradient id="linear-gradient-2" x1="4342.78278" y1="6443.70489" x2="3971.21901" y2="6302.54783" gradientTransform="matrix(0.35514, -0.93481, -0.93481, -0.35514, 4688.69822, 6418.97031)" xlink:href="#linear-gradient"/><linearGradient id="linear-gradient-3" x1="4288.99458" y1="6514.46679" x2="3960.88602" y2="6378.36875" gradientTransform="matrix(0.38314, -0.92369, -0.92369, -0.38314, 4580.53896, 6578.1221)" xlink:href="#linear-gradient"/></defs><title>svg FORM (in prod)</title><path d="M232.87412,2.4871c20.14542-11.50962,49.001,19.91985,62.68335,33.20345C371.84739,109.9057,426.257,280.324,361.15639,398.08679c-19.24236,34.82228-56.10334,81.57347-90.79819,94.39635-46.19263,17.08078-52.58952-57.2657-77.60089-80.04988-36.25437-32.98082-87.02738-1.60078-129.088-8.90693C24.88111,396.8001-1.21989,357.26663.044,312.38867c1.0425-36.923,16.81256-79.15868,46.44224-101.78824,33.44746-25.5206,71.15237-21.38087,106.98217-34.58312,51.4499-18.92091,59.86931-78.12383,61.923-129.49032C215.98247,31.29615,217.96935,11.0564,232.87412,2.4871Z" opacity="0.5" fill="url(#linear-gradient)"/><path d="M246.31815,72.4372c16.114-8.23478,37.63744,18.36562,47.89571,29.68114,57.1933,63.212,94.16358,202.44035,39.471,293.61285-16.16641,26.96-46.48627,62.61463-74.01064,71.18811-36.64615,11.42147-39.227-48.4676-58.02789-67.9518-27.25368-28.20643-67.94343-5.55134-100.56833-13.46893-30.087-7.29239-49.19467-40.25156-46.74815-76.15118,2.01495-29.536,15.70943-62.60678,39.59516-79.287,26.96259-18.8096,56.28727-13.643,84.71073-22.46477,40.81353-12.63813,49.31651-59.66565,52.59113-100.7259C232.18388,94.69395,234.39429,78.57289,246.31815,72.4372Z" opacity="0.5" fill="url(#linear-gradient-2)"/><path d="M247.51934,121.67564c14.62415-6.92585,33.14448,17.42876,42.00816,27.81865,49.41467,58.03812,78.70643,183.47268,27.36726,263.48656-15.17548,23.6605-43.23518,54.71075-68.06671,61.63189-33.061,9.22083-33.75412-44.37591-50.03289-62.29691-23.59862-25.94443-60.57639-6.79225-89.52231-14.74779-26.69442-7.32837-42.88434-37.3012-39.73045-69.32137,2.5967-26.3442,15.72749-55.533,37.52531-69.79771,24.60522-16.085,50.6756-10.67715,76.31739-17.796,36.81853-10.196,45.68532-51.99877,49.71838-88.60906C234.28685,141.18729,236.6968,126.83828,247.51934,121.67564Z" fill="url(#linear-gradient-3)"/></svg>